<svg xmlns="http://www.w3.org/2000/svg" width="23.263" height="23.263" viewBox="0 0 23.263 23.263"><defs><style>.a{fill:#193164;}</style></defs><path class="a" d="M11.631,0A11.632,11.632,0,1,0,23.263,11.632,11.632,11.632,0,0,0,11.631,0Zm10.06,15.706-3.308.571a17.358,17.358,0,0,0,.609-4.258h3.486a10.784,10.784,0,0,1-.787,3.687ZM.785,12.019H4.271a17.358,17.358,0,0,0,.609,4.258l-3.308-.571a10.784,10.784,0,0,1-.787-3.687Zm.787-4.463L4.88,6.986a17.358,17.358,0,0,0-.609,4.258H.785a10.784,10.784,0,0,1,.787-3.687ZM12.019,6.225a26.672,26.672,0,0,1,4.156.38l1.369.236a16.643,16.643,0,0,1,.673,4.4h-6.2Zm4.289-.385a27.482,27.482,0,0,0-4.289-.391V.8c2.223.214,4.154,2.249,5.248,5.211ZM11.244,5.45a27.478,27.478,0,0,0-4.288.391L6,6.007C7.09,3.044,9.021,1.008,11.244.8ZM7.088,6.6a26.665,26.665,0,0,1,4.156-.38v5.019h-6.2a16.643,16.643,0,0,1,.673-4.4ZM5.046,12.019h6.2v5.019a26.672,26.672,0,0,1-4.156-.38l-1.369-.236a16.643,16.643,0,0,1-.673-4.4Zm1.909,5.4a27.575,27.575,0,0,0,4.289.393v4.653C9.021,22.254,7.09,20.219,6,17.257Zm5.064.393a27.572,27.572,0,0,0,4.288-.393l.96-.166c-1.094,2.963-3.025,5-5.248,5.211Zm4.156-1.157a26.665,26.665,0,0,1-4.156.38V12.019h6.2a16.643,16.643,0,0,1-.673,4.4Zm2.817-5.414a17.358,17.358,0,0,0-.609-4.258l3.308.571a10.784,10.784,0,0,1,.787,3.687ZM21.3,6.7l-3.171-.547a10.692,10.692,0,0,0-3.085-4.827A10.907,10.907,0,0,1,21.3,6.7ZM8.22,1.328A10.692,10.692,0,0,0,5.135,6.155L1.964,6.7A10.908,10.908,0,0,1,8.22,1.328ZM1.964,16.561l3.171.547A10.692,10.692,0,0,0,8.22,21.935a10.907,10.907,0,0,1-6.256-5.374Zm13.079,5.374a10.692,10.692,0,0,0,3.085-4.827l3.171-.547a10.908,10.908,0,0,1-6.256,5.374Zm0,0"/></svg>