<svg xmlns="http://www.w3.org/2000/svg" width="14.486" height="20" viewBox="0 0 14.486 20"><defs><style>.a{opacity:0.7;}.b{fill:#262626;}</style></defs><g class="a"><g transform="translate(0)"><path class="b" d="M77.816,0a7.251,7.251,0,0,0-7.243,7.243c0,4.957,6.482,12.233,6.758,12.54a.652.652,0,0,0,.971,0c.276-.307,6.758-7.584,6.758-12.54A7.252,7.252,0,0,0,77.816,0Zm0,18.349c-2.182-2.591-5.939-7.7-5.939-11.106a5.939,5.939,0,1,1,11.878,0C83.755,10.645,80,15.757,77.816,18.349Z" transform="translate(-70.573)"/></g><g transform="translate(3.599 3.599)"><g transform="translate(0)"><path class="b" d="M166.352,92.134A3.644,3.644,0,1,0,170,95.778,3.648,3.648,0,0,0,166.352,92.134Zm0,5.984a2.34,2.34,0,1,1,2.34-2.34A2.342,2.342,0,0,1,166.352,98.118Z" transform="translate(-162.708 -92.134)"/></g></g></g></svg>