<svg xmlns="http://www.w3.org/2000/svg" width="25.441" height="23.321" viewBox="0 0 25.441 23.321"><defs><style>.a{fill:#193164;}</style></defs><path class="a" d="M25.335,24.726a.551.551,0,0,0-.424-.212H4.77l-.53-2.756c0-.212-.318-.424-.53-.424H.53a.53.53,0,0,0,0,1.06H3.286L5.83,35.326a3.735,3.735,0,0,0,3.6,2.968h12.19a.53.53,0,0,0,0-1.06H9.54a2.444,2.444,0,0,1-2.12-1.166L22.9,33.948a.456.456,0,0,0,.424-.424l2.12-8.48A.523.523,0,0,0,25.335,24.726Zm-2.968,8.268L6.89,35.008l-1.908-9.54H24.169Z" transform="translate(0 -21.334)"/><g transform="translate(6.36 18.02)"><path class="a" d="M130.65,384a2.65,2.65,0,1,0,2.65,2.65A2.624,2.624,0,0,0,130.65,384Zm0,4.24a1.59,1.59,0,1,1,1.59-1.59A1.63,1.63,0,0,1,130.65,388.24Z" transform="translate(-128 -384)"/></g><g transform="translate(16.96 18.02)"><path class="a" d="M343.984,384a2.65,2.65,0,1,0,2.65,2.65A2.624,2.624,0,0,0,343.984,384Zm0,4.24a1.59,1.59,0,1,1,1.59-1.59A1.63,1.63,0,0,1,343.984,388.24Z" transform="translate(-341.334 -384)"/></g></svg>