<svg xmlns="http://www.w3.org/2000/svg" width="23.278" height="23.278" viewBox="0 0 23.278 23.278"><defs><style>.a{fill:#193164;}</style></defs><path class="a" d="M23.278,11.639a11.639,11.639,0,1,0-19.5,8.574l-.011.01.378.318c.025.021.051.038.076.058.2.166.408.324.62.477.069.05.137.1.207.147q.339.234.695.444l.156.09c.259.148.524.287.8.415l.06.027a11.534,11.534,0,0,0,2.815.891l.078.014c.306.053.616.1.93.124l.115.009c.312.026.628.042.948.042s.63-.017.94-.041l.118-.009q.467-.043.922-.121l.079-.014a11.534,11.534,0,0,0,2.775-.87l.1-.044q.392-.184.766-.4l.186-.107c.228-.134.452-.274.669-.423.078-.053.155-.11.232-.165.186-.134.368-.272.546-.416.039-.032.082-.059.12-.092l.387-.323-.011-.01A11.609,11.609,0,0,0,23.278,11.639Zm-22.432,0A10.793,10.793,0,1,1,18.8,19.707a3.172,3.172,0,0,0-.378-.227l-3.584-1.792a.938.938,0,0,1-.521-.844V15.593c.083-.1.171-.218.261-.346a8.625,8.625,0,0,0,1.107-2.168,1.536,1.536,0,0,0,.882-1.392v-1.5a1.54,1.54,0,0,0-.375-1V7.209a3.414,3.414,0,0,0-.8-2.482,4.764,4.764,0,0,0-3.753-1.341A4.765,4.765,0,0,0,7.886,4.727a3.414,3.414,0,0,0-.8,2.482V9.184a1.542,1.542,0,0,0-.375,1v1.5a1.54,1.54,0,0,0,.567,1.194,7.953,7.953,0,0,0,1.309,2.7V16.81a.944.944,0,0,1-.492.829L4.752,19.464a3.059,3.059,0,0,0-.318.2A10.767,10.767,0,0,1,.846,11.639ZM17.97,20.371q-.222.161-.452.311c-.07.046-.14.091-.212.136-.2.124-.4.241-.61.351l-.138.071a10.784,10.784,0,0,1-1.476.625l-.054.018q-.4.132-.806.234h0c-.274.068-.552.124-.831.17l-.023,0c-.263.043-.528.074-.794.1l-.141.011c-.263.02-.527.033-.792.033s-.536-.013-.8-.033l-.138-.011c-.268-.024-.535-.055-.8-.1l-.036-.006a10.752,10.752,0,0,1-1.646-.411l-.05-.017q-.4-.136-.788-.3l-.006,0c-.245-.105-.485-.222-.722-.345l-.093-.048c-.216-.116-.428-.24-.637-.371l-.184-.118c-.192-.126-.382-.256-.566-.395l-.056-.044.041-.023L8.5,18.382a1.79,1.79,0,0,0,.933-1.572V15.285l-.1-.118a7.067,7.067,0,0,1-1.27-2.631l-.039-.168-.144-.094a.7.7,0,0,1-.325-.589v-1.5A.691.691,0,0,1,7.8,9.668l.14-.126V7.185l0-.055a2.549,2.549,0,0,1,.591-1.845,3.988,3.988,0,0,1,3.116-1.052,4,4,0,0,1,3.109,1.044,2.592,2.592,0,0,1,.6,1.854l0,2.413.14.126a.692.692,0,0,1,.236.518v1.5a.707.707,0,0,1-.5.667l-.21.065-.068.21a7.83,7.83,0,0,1-1.056,2.13c-.111.157-.219.3-.312.4l-.1.12v1.566a1.779,1.779,0,0,0,.99,1.6l3.584,1.792.068.035C18.063,20.307,18.016,20.338,17.97,20.371Z"/></svg>