<svg xmlns="http://www.w3.org/2000/svg" width="42.359" height="41.651" viewBox="0 0 42.359 41.651"><g transform="translate(2.83 16.271)"><path d="M45.48,200.952h-9.2a2.08,2.08,0,0,0-2.078,2.078v4.952a2.08,2.08,0,0,0,2.078,2.078h4.748a2.083,2.083,0,0,0,1.892-1.218l3.16-6.952A.67.67,0,0,0,45.48,200.952Zm-3.764,7.341a.753.753,0,0,1-.684.441H36.283a.753.753,0,0,1-.752-.752V203.03a.753.753,0,0,1,.752-.752H44.45Z" transform="translate(-34.205 -200.952)"/></g><g transform="translate(17.686 16.271)"><path d="M223.638,200.952h-9.2a.663.663,0,0,0-.6.938l3.16,6.952a2.082,2.082,0,0,0,1.892,1.218h4.748a2.08,2.08,0,0,0,2.078-2.078V203.03A2.08,2.08,0,0,0,223.638,200.952Zm.752,7.03a.753.753,0,0,1-.752.752H218.89a.753.753,0,0,1-.684-.441l-2.734-6.015h8.167a.753.753,0,0,1,.752.752v4.952Z" transform="translate(-213.778 -200.952)"/></g><g transform="translate(0 2.83)"><path d="M40.988,54.751h-.4V40.912a2.432,2.432,0,0,0-4.864,0v13.84h-1.15V53.292a.663.663,0,0,0-1.327,0v1.459h-.8V54a4.914,4.914,0,0,0-4.908-4.908H24.068a.663.663,0,1,0,0,1.327h3.478A3.585,3.585,0,0,1,31.128,54v4.952a3.585,3.585,0,0,1-3.581,3.581H22.282a2.173,2.173,0,0,1-1.967-1.259l-3.486-7.553a.669.669,0,0,0-1.2,0l-3.486,7.553a2.173,2.173,0,0,1-1.967,1.259H4.908a3.585,3.585,0,0,1-3.581-3.581V54a3.585,3.585,0,0,1,3.581-3.581H21.179a.663.663,0,1,0,0-1.327H4.908A4.914,4.914,0,0,0,0,54v4.952A4.914,4.914,0,0,0,4.908,63.86h5.264a3.5,3.5,0,0,0,3.172-2.029l2.884-6.248,2.884,6.248a3.5,3.5,0,0,0,3.172,2.029h5.264a4.914,4.914,0,0,0,4.908-4.908v-.044h.8v1.459a.663.663,0,1,0,1.327,0V58.908h1.15V63.2a.663.663,0,0,0,1.327,0V58.908h2.211V67.8a8.189,8.189,0,0,1-8.18,8.18,6.753,6.753,0,0,1-6.7-5.849,7.463,7.463,0,0,0,2.247.03,4.569,4.569,0,0,0,4.455,3.608A5.976,5.976,0,0,0,37.053,67.8V66.056a.663.663,0,0,0-1.327,0V67.8a4.648,4.648,0,0,1-4.643,4.643,3.237,3.237,0,0,1-3.162-2.581,7.363,7.363,0,0,0,3.446-2.4A1.724,1.724,0,0,0,28.677,65.3a3.936,3.936,0,0,1-6.146,0,1.724,1.724,0,1,0-2.691,2.157,7.368,7.368,0,0,0,3.173,2.3A8.077,8.077,0,0,0,31.084,77.3,9.517,9.517,0,0,0,40.59,67.8V58.908h.4a1.372,1.372,0,0,0,1.371-1.371V56.122A1.373,1.373,0,0,0,40.988,54.751Zm-7.738,2.83h-.8v-1.5h.8ZM20.875,66.629a.4.4,0,0,1,.621-.5,5.262,5.262,0,0,0,8.215,0,.4.4,0,1,1,.621.5,6.058,6.058,0,0,1-9.457,0ZM37.053,40.912a1.105,1.105,0,1,1,2.211,0v13.84H37.053V40.912Zm3.979,16.625a.044.044,0,0,1-.044.044H34.577v-1.5h6.411a.044.044,0,0,1,.044.044Z" transform="translate(0 -38.48)"/></g><g transform="translate(25.468 7.782)"><path d="M309.919,98.338A2.078,2.078,0,1,0,312,100.416,2.08,2.08,0,0,0,309.919,98.338Zm0,2.83a.752.752,0,1,1,.752-.752A.753.753,0,0,1,309.919,101.168Z" transform="translate(-307.841 -98.338)"/></g><g transform="translate(4.245)"><path d="M54.093,4.276a2.786,2.786,0,1,0,2.786,2.786A2.789,2.789,0,0,0,54.093,4.276Zm0,4.245a1.459,1.459,0,1,1,1.459-1.459A1.461,1.461,0,0,1,54.093,8.521Z" transform="translate(-51.307 -4.276)"/></g><g transform="translate(4.952 32.543)"><path d="M61.936,397.628a2.078,2.078,0,1,0,2.078,2.078A2.08,2.08,0,0,0,61.936,397.628Zm0,2.83a.752.752,0,1,1,.752-.752A.753.753,0,0,1,61.936,400.458Z" transform="translate(-59.858 -397.628)"/></g></svg>