<svg xmlns="http://www.w3.org/2000/svg" width="12.632" height="23.321" viewBox="0 0 12.632 23.321"><defs><style>.a{fill:#193164;}</style></defs><g transform="translate(5.83)"><g transform="translate(0)"><path class="a" d="M245.819,0a.486.486,0,0,0-.486.486V22.835a.486.486,0,0,0,.972,0V.486A.486.486,0,0,0,245.819,0Z" transform="translate(-245.333)"/></g></g><g transform="translate(0 1.943)"><path class="a" d="M123.649,42.667c-3.483,0-6.316,2.18-6.316,4.858,0,1.849,1.329,3.513,3.47,4.342a.486.486,0,0,0,.352-.906,3.937,3.937,0,0,1-2.85-3.436c0-2.144,2.4-3.887,5.344-3.887s5.344,1.743,5.344,3.887a.486.486,0,0,0,.972,0C129.965,44.846,127.132,42.667,123.649,42.667Z" transform="translate(-117.333 -42.667)"/></g><g transform="translate(0 12.145)"><path class="a" d="M126.494,266.667a.485.485,0,1,0-.351.9,3.937,3.937,0,0,1,2.85,3.436c0,2.144-2.4,3.887-5.344,3.887s-5.344-1.743-5.344-3.887a.486.486,0,1,0-.972,0c0,2.679,2.833,4.858,6.316,4.858s6.316-2.18,6.316-4.858C129.965,269.159,128.636,267.5,126.494,266.667Z" transform="translate(-117.333 -266.634)"/></g><g transform="translate(3.159 10.204)"><path class="a" d="M192.7,226.011c-1.422-.573-2.1-.8-2.808-1.031-.633-.209-1.286-.426-2.537-.911a.486.486,0,0,0-.353.9c1.275.5,1.941.715,2.586.928.7.23,1.356.448,2.75,1.01a.494.494,0,0,0,.182.035.485.485,0,0,0,.181-.935Z" transform="translate(-186.697 -224.034)"/></g></svg>