<svg xmlns="http://www.w3.org/2000/svg" width="13.118" height="24.263" viewBox="0 0 13.118 24.263"><defs><style>.a{fill:#fff;}</style></defs><path class="a" d="M34.7.005,31.554,0c-3.535,0-5.819,2.344-5.819,5.971V8.724H22.572a.5.5,0,0,0-.495.495v3.989a.5.5,0,0,0,.495.495h3.164V23.768a.5.5,0,0,0,.495.495h4.127a.5.5,0,0,0,.495-.495V13.7h3.7a.5.5,0,0,0,.495-.495l0-3.989a.5.5,0,0,0-.495-.495h-3.7V6.39c0-1.122.267-1.691,1.729-1.691H34.7a.5.5,0,0,0,.494-.495V.5A.5.5,0,0,0,34.7.005Z" transform="translate(-22.077)"/></svg>