<svg xmlns="http://www.w3.org/2000/svg" width="41.264" height="41.264" viewBox="0 0 41.264 41.264"><path d="M156.451,25.556l-5.914-.946V23.184a8.074,8.074,0,0,0,4.836-7.388v-3.3h4.03a.806.806,0,0,0,.806-.806v-.924A3.513,3.513,0,0,0,156.7,7.253h-1.367a8.06,8.06,0,0,0-16.039,0h-1.367a3.513,3.513,0,0,0-3.509,3.509v.924a.806.806,0,0,0,.806.806h4.03v3.3a8.074,8.074,0,0,0,4.836,7.388V24.61l-5.914.946A7.336,7.336,0,0,0,132,32.8v7.66a.806.806,0,0,0,.806.806H161.82a.806.806,0,0,0,.806-.806V32.8a7.336,7.336,0,0,0-6.175-7.242ZM147.313,1.612a6.456,6.456,0,0,1,6.4,5.642H140.918A6.456,6.456,0,0,1,147.313,1.612ZM140.865,15.8v-3.3h2.9a.806.806,0,1,0,0-1.612H136.03v-.118a1.9,1.9,0,0,1,1.9-1.9H156.7a1.9,1.9,0,0,1,1.9,1.9v.118H151.02a.806.806,0,0,0,0,1.612h2.74v3.3a6.448,6.448,0,0,1-12.9,0Zm4.157,10.3a.806.806,0,0,0,.679-.8v-1.6a8.077,8.077,0,0,0,3.224,0v1.6a.806.806,0,0,0,.679.8l2.675.428-4.965,6.621-4.965-6.621Zm3.983,13.56h-3.3V35.945h3.3ZM133.612,32.8a5.7,5.7,0,0,1,4.818-5.65l2.119-.339,5.643,7.525h-1.3a.806.806,0,0,0-.806.806v4.513h-5.642V35.139a.806.806,0,0,0-1.612,0v4.513h-3.224Zm27.4,6.855H157.79V35.139a.806.806,0,1,0-1.612,0v4.513h-5.561V35.139a.806.806,0,0,0-.806-.806h-1.377l5.643-7.525,2.119.339a5.7,5.7,0,0,1,4.818,5.65Z" transform="translate(-121.362)"/><path d="M291.718,202.208a.806.806,0,1,0-1.4-.807,1.61,1.61,0,0,1-2.791,0,.806.806,0,1,0-1.4.807,3.222,3.222,0,0,0,5.581,0Z" transform="translate(-262.976 -184.799)"/><path d="M.806,161.014a.806.806,0,1,0,0,1.612H5.642a.806.806,0,1,0,0-1.612H4.03V147.859l11.583-4.633a.806.806,0,0,0,0-1.5L4.03,137.1v-4.29a.806.806,0,0,0-1.612,0v28.208Zm12.337-18.537L4.03,146.122v-7.29Z" transform="translate(0 -121.362)"/><ellipse cx="0.806" cy="0.806" rx="0.806" ry="0.806" transform="translate(25.188 10.88)"/></svg>