<svg xmlns="http://www.w3.org/2000/svg" width="24.189" height="24.197" viewBox="0 0 24.189 24.197"><defs><style>.a{fill:#fff;}</style></defs><g transform="translate(0 0.001)"><path class="a" d="M2350.125-3.8h0a70.224,70.224,0,0,1-8.157-.29,4.624,4.624,0,0,1-3.561-3.526,21.823,21.823,0,0,1-.372-6.075v-.017c.017-.717.035-1.459.035-2.194,0-1.011-.01-1.923-.019-2.727v-.013c-.047-4.259-.066-6.021,1.526-7.676,1.407-1.46,2.879-1.68,7.209-1.68.793,0,1.667.007,2.677.016l.437,0c1.18.01,2.571.02,4.159.02a22.2,22.2,0,0,1,3.526.106l.031,0a5.2,5.2,0,0,1,4.549,5.116c.031.383.031,13.273,0,13.656a5.179,5.179,0,0,1-3.861,4.982A70.161,70.161,0,0,1,2350.125-3.8Zm0-3.189c.305,0,.617,0,.917.006s.609.006.914.006c2.848,0,5.5-.236,6.606-3.085a14.166,14.166,0,0,0,.469-4.937v-.12q0-.376,0-.776c0-.334,0-.657,0-.969.016-2.962.027-4.919-1.5-6.443-1.393-1.393-3.235-1.5-5.5-1.5-.288,0-.585,0-.891,0-.329,0-.667,0-1.02,0-.294,0-.588,0-.879,0s-.573,0-.854,0c-3.01,0-5.593.232-6.7,3.081a14.243,14.243,0,0,0-.469,4.957q0,.424,0,.878,0,.3,0,.589v.144a15.711,15.711,0,0,0,.469,5.1c1.108,2.85,3.693,3.082,6.707,3.082.28,0,.563,0,.847,0h.006C2349.541-6.991,2349.833-6.993,2350.127-6.993Zm2.02-1.594c-.312,0-.627,0-.96-.007h-.006c-.341,0-.694-.008-1.051-.008-7.094,0-7.3-.2-7.3-7.3,0-3.642.148-5.421,1.023-6.34s2.393-.956,5.477-.959h.241c.414,0,.806,0,1.186-.007.44,0,.85-.008,1.238-.008,2.261,0,3.556.154,4.361,1,1.2,1.257,1.285,4.076,1.02,9.918C2357.22-8.861,2355.014-8.587,2352.147-8.587Zm-2.019-11.887a4.579,4.579,0,0,0-4.573,4.575,4.578,4.578,0,0,0,4.573,4.573A4.578,4.578,0,0,0,2354.7-15.9,4.579,4.579,0,0,0,2350.129-20.474Zm4.754-1.249a1.07,1.07,0,0,0-1.068,1.068,1.07,1.07,0,0,0,1.068,1.069,1.07,1.07,0,0,0,1.068-1.069A1.069,1.069,0,0,0,2354.883-21.723Zm-4.754,8.793a2.836,2.836,0,0,1-2.945-2.971,2.834,2.834,0,0,1,2.945-2.967,2.836,2.836,0,0,1,2.946,2.971A2.834,2.834,0,0,1,2350.129-12.93Z" transform="translate(-2338 28)"/></g></svg>