<svg xmlns="http://www.w3.org/2000/svg" width="50.474" height="41.979" viewBox="0 0 50.474 41.979"><path d="M52.758,290.566a6.671,6.671,0,0,0-6.22,9.072l1.382-.534a5.183,5.183,0,1,1,2.572,2.8l-.648,1.332a6.607,6.607,0,0,0,2.915.669,6.667,6.667,0,1,0,0-13.335Zm0,0" transform="translate(-41.547 -261.921)"/><path d="M59.831,388.7l-1.206.86a6.708,6.708,0,0,0,1.125,1.222l.958-1.131a5.214,5.214,0,0,1-.876-.952Zm0,0" transform="translate(-52.846 -350.384)"/><path d="M88.885,336.077a2.716,2.716,0,1,0-2.716-2.716A2.719,2.719,0,0,0,88.885,336.077Zm0-3.951a1.235,1.235,0,1,1-1.235,1.235A1.236,1.236,0,0,1,88.885,332.126Zm0,0" transform="translate(-77.674 -298.049)"/><path d="M336.374,388.7l-1.206.86a6.694,6.694,0,0,0,1.125,1.222l.957-1.131A5.213,5.213,0,0,1,336.374,388.7Zm0,0" transform="translate(-302.126 -350.384)"/><path d="M329.3,290.566a6.671,6.671,0,0,0-6.22,9.072l1.382-.534a5.183,5.183,0,1,1,2.572,2.8l-.648,1.332a6.6,6.6,0,0,0,2.914.669,6.667,6.667,0,1,0,0-13.335Zm0,0" transform="translate(-290.824 -261.921)"/><path d="M365.424,336.077a2.716,2.716,0,1,0-2.716-2.716A2.719,2.719,0,0,0,365.424,336.077Zm0-3.951a1.235,1.235,0,1,1-1.235,1.235A1.236,1.236,0,0,1,365.424,332.126Zm0,0" transform="translate(-326.951 -298.049)"/><path d="M428.336,256.5h1.482v1.482h-1.482Zm0,0" transform="translate(-386.11 -231.214)"/><path d="M398.277,256.5h1.482v1.482h-1.482Zm0,0" transform="translate(-359.014 -231.214)"/><path d="M243.751,141.768h-3.243v1.482h3.243a2.712,2.712,0,0,0,2.527-3.714l-1.4-3.556a2.7,2.7,0,0,0-2.527-1.718h-5.174a2.72,2.72,0,0,0-2.716,2.716v3.556a2.72,2.72,0,0,0,2.716,2.716h1.854v-1.482h-1.854a1.236,1.236,0,0,1-1.235-1.235v-3.556a1.236,1.236,0,0,1,1.235-1.235h5.174a1.228,1.228,0,0,1,1.148.781l1.4,3.556a1.23,1.23,0,0,1-1.149,1.688Zm0,0" transform="translate(-211.344 -121.026)"/><path d="M49.228,134.262H36.783a2.719,2.719,0,0,0-2.716,2.716v3.556a2.719,2.719,0,0,0,2.716,2.716H49.228a2.72,2.72,0,0,0,2.716-2.716v-3.556A2.72,2.72,0,0,0,49.228,134.262Zm-6.963,7.507H36.783a1.236,1.236,0,0,1-1.235-1.235v-3.556a1.236,1.236,0,0,1,1.235-1.235h5.482Zm8.2-1.235a1.236,1.236,0,0,1-1.235,1.235H43.746v-6.025h5.482a1.236,1.236,0,0,1,1.235,1.235Zm0,0" transform="translate(-30.708 -121.026)"/><path d="M34.548,1.482h2.963V6.421h4.445V1.482h2.963V8.05H46.4V3.457h3.951V7.408H54.8V3.457h3.951V8.05h1.481V1.975H46.4V0H33.066V8.05h1.481ZM51.834,3.457h1.481V5.926H51.834ZM38.993,1.482h1.481V4.939H38.993Zm0,0" transform="translate(-29.807)"/><path d="M223.941,101.678H234.2a2.214,2.214,0,0,1,2.056,1.379l3.465,8.452,4.645.444.141-1.475-3.755-.359-3.126-7.624a3.691,3.691,0,0,0-3.427-2.3h-10.26Zm0,0" transform="translate(-201.865 -90.318)"/><path d="M1.482,240.14v-5.581h36.3v-1.482H1.482v-2.562H0v9.624a2.719,2.719,0,0,0,2.716,2.716h.059v-1.482H2.716a1.236,1.236,0,0,1-1.235-1.235Zm0,0" transform="translate(0 -207.791)"/><path d="M450.147,206.306l-3.9-.372-.141,1.475,3.9.372a1.23,1.23,0,0,1,1.117,1.229v1.118h-3.556v5.038h3.556v2.815a1.236,1.236,0,0,1-1.235,1.235h-.849V220.7h.849a2.719,2.719,0,0,0,2.716-2.716V209.01a2.706,2.706,0,0,0-2.458-2.7Zm.976,7.378h-2.074V211.61h2.074Zm0,0" transform="translate(-402.131 -185.632)"/><path d="M1.482,102.912a1.236,1.236,0,0,1,1.235-1.235H20.595V100.2H2.716A2.719,2.719,0,0,0,0,102.912v8.649H1.482Zm0,0" transform="translate(0 -90.318)"/><path d="M199.289,340.664H209.68v1.482H199.289Zm0,0" transform="translate(-179.643 -307.081)"/><path d="M227.86,312.088H224.9v-1.482h2.963Zm-4.445,0h-1.481v-1.482h1.481Zm0,0" transform="translate(-200.055 -279.986)"/></svg>