<svg xmlns="http://www.w3.org/2000/svg" width="42.071" height="42.066" viewBox="0 0 42.071 42.066"><g transform="translate(24.321 13.486)"><path d="M300.045,167.3l-2.953-2.953a.653.653,0,0,0-.923.923l2.953,2.953a.653.653,0,1,0,.923-.923Z" transform="translate(-295.978 -164.16)"/></g><g transform="translate(13.492 24.315)"><path d="M168.267,299.082l-2.953-2.953a.653.653,0,1,0-.923.923l2.953,2.953a.651.651,0,0,0,.461.191A.658.658,0,0,0,168.267,299.082Z" transform="translate(-164.2 -295.938)"/></g><path d="M41.677,36.848l-4.922-4.922a.653.653,0,0,0-.3-.172l-3.937-.984a.676.676,0,0,0-.65.2l-4.5-4.5a45.078,45.078,0,0,0,3.16-3.619.653.653,0,0,0-1.028-.8,43.8,43.8,0,0,1-3.055,3.5l-1.07-1.07a5.524,5.524,0,0,0-7.758-7.758l-1.069-1.069a43.3,43.3,0,0,1,7.778-6.005,11.878,11.878,0,0,1,8.125,8.126q-.682,1.127-1.436,2.219a.653.653,0,0,0,1.074.742,44.022,44.022,0,0,0,7.1-17.065.659.659,0,0,0-.761-.761,44.245,44.245,0,0,0-22.8,11.822L11.13,10.239a.675.675,0,0,0,.2-.65l-.984-3.938a.652.652,0,0,0-.172-.3L5.254.426a1.35,1.35,0,0,0-1.907,0L.394,3.379a1.35,1.35,0,0,0,0,1.907l4.922,4.922a.653.653,0,0,0,.3.172l3.937.984a.675.675,0,0,0,.65-.2L14.7,15.655c-.692.712-1.364,1.449-2,2.2a.653.653,0,1,0,.994.846c.616-.724,1.264-1.435,1.931-2.122l1.07,1.07A5.524,5.524,0,0,0,24.449,25.4l1.07,1.07a43.3,43.3,0,0,1-7.772,6,11.879,11.879,0,0,1-8.123-8.119,42.47,42.47,0,0,1,2.422-3.6A.653.653,0,1,0,11,19.973,43.8,43.8,0,0,0,8.4,23.864a.64.64,0,0,0-.04.056A44.34,44.34,0,0,0,5.469,29.7a.656.656,0,0,0-.028.088,44.374,44.374,0,0,0-2.557,8.659.659.659,0,0,0,.761.761A44.246,44.246,0,0,0,26.442,27.4l4.5,4.5a.675.675,0,0,0-.2.65l.984,3.938a.652.652,0,0,0,.172.3l4.922,4.922a1.363,1.363,0,0,0,1.907,0l2.953-2.953A1.349,1.349,0,0,0,41.677,36.848ZM37.716,4.381a43.07,43.07,0,0,1-1.855,6.375A18.088,18.088,0,0,0,31.345,6.24,43.106,43.106,0,0,1,37.716,4.381ZM29.87,6.828a16.879,16.879,0,0,1,5.4,5.4,43.094,43.094,0,0,1-1.952,4.041A13.2,13.2,0,0,0,25.83,8.781,43.116,43.116,0,0,1,29.87,6.828ZM9.515,10.009l-3.4-.851L1.317,4.364a.044.044,0,0,1,0-.062L4.27,1.349a.044.044,0,0,1,.062,0L9.126,6.143l.851,3.4ZM21.035,25.281a4.22,4.22,0,0,1-3.412-6.7l5.9,5.9A4.188,4.188,0,0,1,21.035,25.281Zm3.407-1.73-5.9-5.9a4.22,4.22,0,0,1,5.9,5.9ZM4.355,37.742a43.077,43.077,0,0,1,1.863-6.364,18.085,18.085,0,0,0,4.507,4.505A43.1,43.1,0,0,1,4.355,37.742ZM12.2,35.295A16.876,16.876,0,0,1,6.807,29.9a43.419,43.419,0,0,1,1.951-4.04,13.2,13.2,0,0,0,7.483,7.479A43.119,43.119,0,0,1,12.2,35.295Zm28.554,2.538L37.8,40.786a.044.044,0,0,1-.062,0l-4.794-4.794-.851-3.4.462-.462,3.4.851,4.794,4.794a.041.041,0,0,1,.013.031A.041.041,0,0,1,40.754,37.833Z" transform="translate(0 -0.032)"/></svg>