<svg xmlns="http://www.w3.org/2000/svg" width="52.44" height="42.3" viewBox="0 0 52.44 42.3"><defs><style>.a{fill:#232323;}</style></defs><g transform="translate(1.402 21.439)"><path class="a" d="M21.184,264.236a3.9,3.9,0,1,0-5.615,1.831l.17,1.29a1.487,1.487,0,0,0,1.47,1.292,1.5,1.5,0,0,0,.2-.013l1.646-.217a1.491,1.491,0,0,0,1.279-1.669l-.146-1.11A3.889,3.889,0,0,0,21.184,264.236Zm-3.928,2.871-.065-.5a3.831,3.831,0,0,0,1.553-.157l.059.448Zm2.511-3.465h0a2.369,2.369,0,1,1-1.266-3.1A2.351,2.351,0,0,1,19.767,263.642Z" transform="translate(-13.686 -258.819)"/></g><g transform="translate(6.941 4.208)"><path class="a" d="M111.279,105.548l-3.022-2.167a2.381,2.381,0,0,0-2.73-.026l-8.287,5.707-3.717-.906,4.326-1.683a2.39,2.39,0,0,0,1.328-1.29l3.943-9.337,1.035.307a2.377,2.377,0,0,0,1.348-4.559l-3.071-.91a2.373,2.373,0,0,0-2.862,1.354l-1.621,3.838a.768.768,0,0,0,1.415.6l1.621-3.838A.838.838,0,0,1,102,92.157l3.071.91a.842.842,0,0,1,.163,1.546.832.832,0,0,1-.638.067l-1.694-.5a.768.768,0,0,0-.926.438l-4.21,9.97a.844.844,0,0,1-.469.456L90.7,107.6h0l-4.776,1.857a.838.838,0,0,1-.193.05L79,110.406a.768.768,0,0,0-.187,1.473l3.583,1.45a.846.846,0,0,1,.305.212l5.687,6.233a.843.843,0,0,1-.054,1.188.838.838,0,0,1-1.185-.054L81.7,114.946a.768.768,0,0,0-.279-.194l-8.892-3.6a.841.841,0,0,1,.2-1.613l3.687-.488,3.17-.419h0l4.491-.594c.068-.009.135-.02.2-.032l1.038-.138a.768.768,0,0,0,.177-.045l10.551-4.1a.768.768,0,0,0,.429-.417l1.491-3.529a.768.768,0,0,0-1.415-.6l-1.364,3.23L87.2,105.513a3.847,3.847,0,0,0-4.128-5.106.768.768,0,1,0,.2,1.523,2.313,2.313,0,0,1,.755,4.561l-3.878.515-.605-4.583a.768.768,0,0,0-.212-1.521l-.749.1h0l-4.433.586h0l-3.044.4a3.851,3.851,0,0,0-.481,7.538,2.353,2.353,0,0,0-.136,1.155s0,.007,0,.011l1.132,8.326-3.054,6.234a2.376,2.376,0,1,0,4.266,2.093l.813-1.659a.768.768,0,1,0-1.38-.676l-.813,1.659a.84.84,0,1,1-1.507-.741l3.156-6.443a.769.769,0,0,0,.071-.441l-.859-6.32,1.793.726.8,5.854a.838.838,0,0,1-.078.484l-1.073,2.19a.768.768,0,1,0,1.38.676l1.073-2.19a2.369,2.369,0,0,0,.221-1.367l-.677-4.982,4.933,2,5.323,5.834a2.376,2.376,0,1,0,3.509-3.205l-5.687-6.233a2.388,2.388,0,0,0-.864-.6l-.888-.359,3.44-.457a.775.775,0,0,0,.107.036l11.52,2.809a2.366,2.366,0,0,0,.561.068,2.376,2.376,0,0,0,1.348-.419l7.789-5.364,1.666,1.195a2.377,2.377,0,0,0,2.767-3.865Zm-33.255-2.923.605,4.583-2.909.386-.605-4.584Zm-7.818,5.017a2.313,2.313,0,0,1,1.1-4.129l2.282-.3L74.2,107.8l-1.53.2-.751.1A2.3,2.3,0,0,1,70.207,107.642Zm40.371.329a.838.838,0,0,1-1.171.194l-2.1-1.509a.768.768,0,0,0-.883-.008l-8.233,5.67a.843.843,0,0,1-.365.141.83.83,0,0,1-.309-.016l-9.224-2.249,2.736-1.064,6.186,1.508a.768.768,0,0,0,.618-.114l8.57-5.9a.84.84,0,0,1,.964.009l3.022,2.167A.843.843,0,0,1,110.578,107.97Z" transform="translate(-67.765 -90.586)"/></g><path class="a" d="M51.672,49.5a3.957,3.957,0,0,0-2.57.909,2.567,2.567,0,0,1-3.344,0,4.087,4.087,0,0,0-5.141,0,2.566,2.566,0,0,1-3.344,0,4.087,4.087,0,0,0-5.14,0,2.566,2.566,0,0,1-3.344,0,4.087,4.087,0,0,0-5.14,0,2.566,2.566,0,0,1-3.343,0,4.087,4.087,0,0,0-5.14,0,2.566,2.566,0,0,1-3.344,0,3.955,3.955,0,0,0-2.57-.909,3.956,3.956,0,0,0-2.57.909,2.447,2.447,0,0,1-1.672.619,2.447,2.447,0,0,1-1.672-.619A3.955,3.955,0,0,0,.768,49.5a.768.768,0,0,0,0,1.536,2.446,2.446,0,0,1,1.672.619,3.955,3.955,0,0,0,2.57.909,3.955,3.955,0,0,0,2.57-.909,2.566,2.566,0,0,1,3.343,0,4.087,4.087,0,0,0,5.14,0,2.566,2.566,0,0,1,3.344,0,4.087,4.087,0,0,0,5.14,0,2.566,2.566,0,0,1,3.343,0,4.087,4.087,0,0,0,5.14,0,2.566,2.566,0,0,1,3.344,0,4.087,4.087,0,0,0,5.14,0,2.567,2.567,0,0,1,3.344,0,4.088,4.088,0,0,0,5.141,0,2.448,2.448,0,0,1,1.672-.619.768.768,0,1,0,0-1.536Z" transform="translate(0 -49.501)"/></svg>