<svg xmlns="http://www.w3.org/2000/svg" width="29.861" height="24.263" viewBox="0 0 29.861 24.263"><defs><style>.a{fill:#fff;}</style></defs><g transform="translate(0 0)"><path class="a" d="M29.862,50.872a12.764,12.764,0,0,1-3.527.967,6.088,6.088,0,0,0,2.693-3.384,12.235,12.235,0,0,1-3.882,1.482,6.122,6.122,0,0,0-10.59,4.186,6.3,6.3,0,0,0,.142,1.4,17.328,17.328,0,0,1-12.618-6.4A6.124,6.124,0,0,0,3.96,57.3a6.046,6.046,0,0,1-2.766-.754v.067a6.15,6.15,0,0,0,4.9,6.015,6.109,6.109,0,0,1-1.605.2,5.413,5.413,0,0,1-1.159-.1,6.18,6.18,0,0,0,5.72,4.265A12.3,12.3,0,0,1,1.465,69.6,11.462,11.462,0,0,1,0,69.515a17.235,17.235,0,0,0,9.392,2.747c11.265,0,17.424-9.332,17.424-17.421,0-.271-.009-.532-.022-.791A12.213,12.213,0,0,0,29.862,50.872Z" transform="translate(0 -48)"/></g></svg>